<svg width="1320" height="1173" xmlns="http://www.w3.org/2000/svg" xmlns:xlink="http://www.w3.org/1999/xlink" xml:space="preserve" overflow="hidden"><defs><clipPath id="clip0"><rect x="1585" y="550" width="1320" height="1173"/></clipPath><clipPath id="clip1"><rect x="1585" y="550" width="1320" height="1173"/></clipPath><clipPath id="clip2"><rect x="1794" y="603" width="1023" height="955"/></clipPath><clipPath id="clip3"><rect x="1794" y="603" width="1023" height="955"/></clipPath></defs><g clip-path="url(#clip0)" transform="translate(-1585 -550)"><g clip-path="url(#clip1)"><rect x="1658" y="553" width="1245" height="1118" fill="#FFFFFF" fill-opacity="1"/><g><path d="M1794.5 1317.54 2814.5 1317.54M1794.5 1079.54 2814.5 1079.54M1794.5 841.528 2814.5 841.528M1794.5 603.5 2814.5 603.5" stroke="#D9D9D9" stroke-width="3.4375" stroke-linecap="butt" stroke-linejoin="round" stroke-miterlimit="10" stroke-opacity="1" fill="none" fill-rule="nonzero"/></g><g><path d="M2049.57 603.5 2049.57 1555.5M2304.58 603.5 2304.58 1555.5M2559.58 603.5 2559.58 1555.5M2814.5 603.5 2814.5 1555.5" stroke="#D9D9D9" stroke-width="3.4375" stroke-linecap="butt" stroke-linejoin="round" stroke-miterlimit="10" stroke-opacity="1" fill="none" fill-rule="nonzero"/></g><g><path d="M0 0 0.000360892 952" stroke="#BFBFBF" stroke-width="3.4375" stroke-linecap="butt" stroke-linejoin="round" stroke-miterlimit="10" stroke-opacity="1" fill="none" fill-rule="evenodd" transform="matrix(1 0 0 -1 1794.5 1555.5)"/></g><g><path d="M1794.5 1555.5 2814.5 1555.5" stroke="#BFBFBF" stroke-width="3.4375" stroke-linecap="butt" stroke-linejoin="round" stroke-miterlimit="10" stroke-opacity="1" fill="none" fill-rule="evenodd"/></g><g><path d="M1938 1363C1938 1360.79 1939.79 1359 1942 1359 1944.21 1359 1946 1360.79 1946 1363 1946 1365.21 1944.21 1367 1942 1367 1939.79 1367 1938 1365.21 1938 1363Z" fill="#FF0000" fill-rule="evenodd" fill-opacity="1"/></g><g clip-path="url(#clip2)"><path d="M2506 1491C2506 1412.58 2569.35 1349 2647.5 1349 2725.65 1349 2789 1412.58 2789 1491 2789 1569.42 2725.65 1633 2647.5 1633 2569.35 1633 2506 1569.42 2506 1491Z" fill="#F4B183" fill-rule="evenodd" fill-opacity="1"/></g><g><path d="M2487 1401C2487 1377.8 2505.8 1359 2529 1359 2552.2 1359 2571 1377.8 2571 1401 2571 1424.2 2552.2 1443 2529 1443 2505.8 1443 2487 1424.2 2487 1401Z" fill="#A5A5A5" fill-rule="evenodd" fill-opacity="0.74902"/></g><g><path d="M2568 1360.5C2568 1322.67 2598.44 1292 2636 1292 2673.56 1292 2704 1322.67 2704 1360.5 2704 1398.33 2673.56 1429 2636 1429 2598.44 1429 2568 1398.33 2568 1360.5Z" fill="#FFC000" fill-rule="evenodd" fill-opacity="0.74902"/></g><g><path d="M2649 1327C2649 1320.37 2654.37 1315 2661 1315 2667.63 1315 2673 1320.37 2673 1327 2673 1333.63 2667.63 1339 2661 1339 2654.37 1339 2649 1333.63 2649 1327Z" fill="#5B9BD5" fill-rule="evenodd" fill-opacity="0.74902"/></g><g clip-path="url(#clip3)"><path d="M2748 1310.5C2748 1289.79 2764.57 1273 2785 1273 2805.43 1273 2822 1289.79 2822 1310.5 2822 1331.21 2805.43 1348 2785 1348 2764.57 1348 2748 1331.21 2748 1310.5Z" fill="#70AD47" fill-rule="evenodd" fill-opacity="0.74902"/></g><g><path d="M1924 1082C1924 1077.03 1928.03 1073 1933 1073 1937.97 1073 1942 1077.03 1942 1082 1942 1086.97 1937.97 1091 1933 1091 1928.03 1091 1924 1086.97 1924 1082Z" fill="#264478" fill-rule="evenodd" fill-opacity="0.74902"/></g><g><path d="M2385 1082C2385 1015.17 2439.17 961 2506 961 2572.83 961 2627 1015.17 2627 1082 2627 1148.83 2572.83 1203 2506 1203 2439.17 1203 2385 1148.83 2385 1082Z" fill="#BDD7EE" fill-rule="evenodd" fill-opacity="1"/></g><g><path d="M2342 682.5C2342 647.43 2370.43 619 2405.5 619 2440.57 619 2469 647.43 2469 682.5 2469 717.57 2440.57 746 2405.5 746 2370.43 746 2342 717.57 2342 682.5Z" fill="#DDD29D" fill-rule="evenodd" fill-opacity="1"/></g><g><text fill="#404040" fill-opacity="1" font-family="Times New Roman,Times New Roman_MSFontService,sans-serif" font-style="normal" font-variant="normal" font-weight="700" font-stretch="normal" font-size="50" text-anchor="start" direction="ltr" writing-mode="lr-tb" unicode-bidi="normal" text-decoration="none" transform="matrix(1 0 0 1 1977.21 1380)">Ours</text></g><g><text fill="#404040" fill-opacity="1" font-family="Times New Roman,Times New Roman_MSFontService,sans-serif" font-style="normal" font-variant="normal" font-weight="400" font-stretch="normal" font-size="50" text-anchor="start" direction="ltr" writing-mode="lr-tb" unicode-bidi="normal" text-decoration="none" transform="matrix(1 0 0 1 2559.22 1523)">DynIBaR</text></g><g><path d="M2528.5 1400.5 2473.58 1438.5 2452.5 1438.5" stroke="#A6A6A6" stroke-width="3.4375" stroke-linecap="butt" stroke-linejoin="round" stroke-miterlimit="10" stroke-opacity="1" fill="none" fill-rule="nonzero"/></g><g><text fill="#404040" fill-opacity="1" font-family="Times New Roman,Times New Roman_MSFontService,sans-serif" font-style="normal" font-variant="normal" font-weight="400" font-stretch="normal" font-size="50" text-anchor="start" direction="ltr" writing-mode="lr-tb" unicode-bidi="normal" text-decoration="none" transform="matrix(1 0 0 1 2231.4 1456)">RoDynRF</text></g><g><path d="M2636.5 1360.5 2540.58 1329.5 2520.5 1329.5" stroke="#A6A6A6" stroke-width="3.4375" stroke-linecap="butt" stroke-linejoin="round" stroke-miterlimit="10" stroke-opacity="1" fill="none" fill-rule="nonzero"/></g><g><text fill="#404040" fill-opacity="1" font-family="Times New Roman,Times New Roman_MSFontService,sans-serif" font-style="normal" font-variant="normal" font-weight="400" font-stretch="normal" font-size="50" text-anchor="start" direction="ltr" writing-mode="lr-tb" unicode-bidi="normal" text-decoration="none" transform="matrix(1 0 0 1 2299.4 1347)">DynNeRF</text></g><g><path d="M2661.5 1327.5 2643.59 1259.5 2623.5 1259.5" stroke="#A6A6A6" stroke-width="3.4375" stroke-linecap="butt" stroke-linejoin="round" stroke-miterlimit="10" stroke-opacity="1" fill="none" fill-rule="nonzero"/></g><g><text fill="#404040" fill-opacity="1" font-family="Times New Roman,Times New Roman_MSFontService,sans-serif" font-style="normal" font-variant="normal" font-weight="400" font-stretch="normal" font-size="50" text-anchor="start" direction="ltr" writing-mode="lr-tb" unicode-bidi="normal" text-decoration="none" transform="matrix(1 0 0 1 2421.79 1277)">FlowIBR</text></g><g><path d="M2785.5 1310.5 2720.5 1253.5" stroke="#A6A6A6" stroke-width="3.4375" stroke-linecap="butt" stroke-linejoin="round" stroke-miterlimit="10" stroke-opacity="1" fill="none" fill-rule="nonzero"/></g><g><text fill="#404040" fill-opacity="1" font-family="Times New Roman,Times New Roman_MSFontService,sans-serif" font-style="normal" font-variant="normal" font-weight="400" font-stretch="normal" font-size="50" text-anchor="start" direction="ltr" writing-mode="lr-tb" unicode-bidi="normal" text-decoration="none" transform="matrix(1 0 0 1 2599.88 1205)">MonoNeRF</text></g><g><g><text fill="#404040" fill-opacity="1" font-family="Times New Roman,Times New Roman_MSFontService,sans-serif" font-style="normal" font-variant="normal" font-weight="400" font-stretch="normal" font-size="50" text-anchor="start" direction="ltr" writing-mode="lr-tb" unicode-bidi="normal" text-decoration="none" transform="matrix(1 0 0 1 1896.45 1045)">4D</text></g></g><g><g><text fill="#404040" fill-opacity="1" font-family="Times New Roman,Times New Roman_MSFontService,sans-serif" font-style="normal" font-variant="normal" font-weight="400" font-stretch="normal" font-size="50" text-anchor="start" direction="ltr" writing-mode="lr-tb" unicode-bidi="normal" text-decoration="none" transform="matrix(1 0 0 1 1958.07 1045)">-</text></g></g><g><g><text fill="#404040" fill-opacity="1" font-family="Times New Roman,Times New Roman_MSFontService,sans-serif" font-style="normal" font-variant="normal" font-weight="400" font-stretch="normal" font-size="50" text-anchor="start" direction="ltr" writing-mode="lr-tb" unicode-bidi="normal" text-decoration="none" transform="matrix(1 0 0 1 1974.87 1045)">GS</text></g></g><g><text fill="#404040" fill-opacity="1" font-family="Times New Roman,Times New Roman_MSFontService,sans-serif" font-style="normal" font-variant="normal" font-weight="400" font-stretch="normal" font-size="50" text-anchor="start" direction="ltr" writing-mode="lr-tb" unicode-bidi="normal" text-decoration="none" transform="matrix(1 0 0 1 2448.29 1091)">NSFF</text></g><g><text fill="#404040" fill-opacity="1" font-family="Times New Roman,Times New Roman_MSFontService,sans-serif" font-style="normal" font-variant="normal" font-weight="400" font-stretch="normal" font-size="50" text-anchor="start" direction="ltr" writing-mode="lr-tb" unicode-bidi="normal" text-decoration="none" transform="matrix(1 0 0 1 2413.09 710)">HyperNeRF</text></g><g><text fill="#595959" fill-opacity="1" font-family="Times New Roman,Times New Roman_MSFontService,sans-serif" font-style="normal" font-variant="normal" font-weight="400" font-stretch="normal" font-size="50" text-anchor="start" direction="ltr" writing-mode="lr-tb" unicode-bidi="normal" text-decoration="none" transform="matrix(1 0 0 1 1725.98 1570)">0</text></g><g><text fill="#595959" fill-opacity="1" font-family="Times New Roman,Times New Roman_MSFontService,sans-serif" font-style="normal" font-variant="normal" font-weight="400" font-stretch="normal" font-size="50" text-anchor="start" direction="ltr" writing-mode="lr-tb" unicode-bidi="normal" text-decoration="none" transform="matrix(1 0 0 1 1688.17 1332)">0.1</text></g><g><text fill="#595959" fill-opacity="1" font-family="Times New Roman,Times New Roman_MSFontService,sans-serif" font-style="normal" font-variant="normal" font-weight="400" font-stretch="normal" font-size="50" text-anchor="start" direction="ltr" writing-mode="lr-tb" unicode-bidi="normal" text-decoration="none" transform="matrix(1 0 0 1 1688.17 1094)">0.2</text></g><g><text fill="#595959" fill-opacity="1" font-family="Times New Roman,Times New Roman_MSFontService,sans-serif" font-style="normal" font-variant="normal" font-weight="400" font-stretch="normal" font-size="50" text-anchor="start" direction="ltr" writing-mode="lr-tb" unicode-bidi="normal" text-decoration="none" transform="matrix(1 0 0 1 1688.17 856)">0.3</text></g><g><text fill="#595959" fill-opacity="1" font-family="Times New Roman,Times New Roman_MSFontService,sans-serif" font-style="normal" font-variant="normal" font-weight="400" font-stretch="normal" font-size="50" text-anchor="start" direction="ltr" writing-mode="lr-tb" unicode-bidi="normal" text-decoration="none" transform="matrix(1 0 0 1 1688.17 618)">0.4</text></g><g><text fill="#595959" fill-opacity="1" font-family="Times New Roman,Times New Roman_MSFontService,sans-serif" font-style="normal" font-variant="normal" font-weight="400" font-stretch="normal" font-size="50" text-anchor="start" direction="ltr" writing-mode="lr-tb" unicode-bidi="normal" text-decoration="none" transform="matrix(1 0 0 1 1749.96 1630)">0.01</text></g><g><text fill="#595959" fill-opacity="1" font-family="Times New Roman,Times New Roman_MSFontService,sans-serif" font-style="normal" font-variant="normal" font-weight="400" font-stretch="normal" font-size="50" text-anchor="start" direction="ltr" writing-mode="lr-tb" unicode-bidi="normal" text-decoration="none" transform="matrix(1 0 0 1 2017.63 1630)">0.1</text></g><g><text fill="#595959" fill-opacity="1" font-family="Times New Roman,Times New Roman_MSFontService,sans-serif" font-style="normal" font-variant="normal" font-weight="400" font-stretch="normal" font-size="50" text-anchor="start" direction="ltr" writing-mode="lr-tb" unicode-bidi="normal" text-decoration="none" transform="matrix(1 0 0 1 2291.59 1630)">1</text></g><g><text fill="#595959" fill-opacity="1" font-family="Times New Roman,Times New Roman_MSFontService,sans-serif" font-style="normal" font-variant="normal" font-weight="400" font-stretch="normal" font-size="50" text-anchor="start" direction="ltr" writing-mode="lr-tb" unicode-bidi="normal" text-decoration="none" transform="matrix(1 0 0 1 2534.04 1630)">10</text></g><g><text fill="#595959" fill-opacity="1" font-family="Times New Roman,Times New Roman_MSFontService,sans-serif" font-style="normal" font-variant="normal" font-weight="400" font-stretch="normal" font-size="50" text-anchor="start" direction="ltr" writing-mode="lr-tb" unicode-bidi="normal" text-decoration="none" transform="matrix(1 0 0 1 2776.5 1630)">100</text></g><path d="M0 0 0.000360892 938.512" stroke="#4472C4" stroke-width="4.58333" stroke-linecap="butt" stroke-linejoin="miter" stroke-miterlimit="8" stroke-dasharray="4.58333 4.58333" stroke-opacity="1" fill="none" fill-rule="evenodd" transform="matrix(1 0 0 -1 1954.5 1551.01)"/><text fill="#4472C4" fill-opacity="1" font-family="Times New Roman,Times New Roman_MSFontService,sans-serif" font-style="normal" font-variant="normal" font-weight="400" font-stretch="normal" font-size="50" text-anchor="start" direction="ltr" writing-mode="lr-tb" unicode-bidi="normal" text-decoration="none" transform="matrix(1 0 0 1 1899.36 1541)">25 fps</text><text fill="#000000" fill-opacity="1" font-family="Times New Roman,Times New Roman_MSFontService,sans-serif" font-style="normal" font-variant="normal" font-weight="400" font-stretch="normal" font-size="50" text-anchor="start" direction="ltr" writing-mode="lr-tb" unicode-bidi="normal" text-decoration="none" transform="matrix(-1.83697e-16 -1 1 -1.83697e-16 1657.33 1194)">LPIPS</text><text fill="#000000" fill-opacity="1" font-family="Times New Roman,Times New Roman_MSFontService,sans-serif" font-style="normal" font-variant="normal" font-weight="400" font-stretch="normal" font-size="48" text-anchor="start" direction="ltr" writing-mode="lr-tb" unicode-bidi="normal" text-decoration="none" transform="matrix(-1.83697e-16 -1 1 -1.83697e-16 1657.33 1049)">(lower the better)</text><path d="M1.14588 22.9167 1.14619 161.145-1.14547 161.145-1.14578 22.9167ZM-13.7499 27.5 0 0 13.7501 27.5Z" fill="#000000" fill-rule="nonzero" fill-opacity="1" transform="matrix(1 0 0 -1 1638 1409.14)"/><text fill="#000000" fill-opacity="1" font-family="Times New Roman,Times New Roman_MSFontService,sans-serif" font-style="normal" font-variant="normal" font-weight="400" font-stretch="normal" font-size="50" text-anchor="start" direction="ltr" writing-mode="lr-tb" unicode-bidi="normal" text-decoration="none" transform="matrix(1 0 0 1 2071.83 1680)">Rendering time (sec/</text><text fill="#000000" fill-opacity="1" font-family="Times New Roman,Times New Roman_MSFontService,sans-serif" font-style="normal" font-variant="normal" font-weight="400" font-stretch="normal" font-size="50" text-anchor="start" direction="ltr" writing-mode="lr-tb" unicode-bidi="normal" text-decoration="none" transform="matrix(1 0 0 1 2490.06 1680)">img</text><text fill="#000000" fill-opacity="1" font-family="Times New Roman,Times New Roman_MSFontService,sans-serif" font-style="normal" font-variant="normal" font-weight="400" font-stretch="normal" font-size="50" text-anchor="start" direction="ltr" writing-mode="lr-tb" unicode-bidi="normal" text-decoration="none" transform="matrix(1 0 0 1 2567.97 1680)">)</text><path d="M1907.92 1663.85 2032.71 1663.85 2032.71 1666.15 1907.92 1666.15ZM1912.5 1678.75 1885 1665 1912.5 1651.25Z" fill="#000000" fill-rule="nonzero" fill-opacity="1"/></g></g></svg>