<svg width="1499" height="1444" xmlns="http://www.w3.org/2000/svg" xmlns:xlink="http://www.w3.org/1999/xlink" xml:space="preserve" overflow="hidden"><defs><clipPath id="clip0"><rect x="2850" y="435" width="1499" height="1444"/></clipPath><clipPath id="clip1"><rect x="2850" y="435" width="1499" height="1444"/></clipPath><clipPath id="clip2"><rect x="3057" y="487" width="1184" height="1082"/></clipPath><clipPath id="clip3"><rect x="3057" y="487" width="1184" height="1082"/></clipPath></defs><g clip-path="url(#clip0)" transform="translate(-2850 -435)"><g clip-path="url(#clip1)"><rect x="2922" y="436" width="1404" height="1246" fill="#FFFFFF" fill-opacity="1"/><g><path d="M3057.5 1296.54 4238.5 1296.54M3057.5 1026.53 4238.5 1026.53M3057.5 756.525 4238.5 756.525M3057.5 487.5 4238.5 487.5" stroke="#D9D9D9" stroke-width="3.4375" stroke-linecap="butt" stroke-linejoin="round" stroke-miterlimit="10" stroke-opacity="1" fill="none" fill-rule="nonzero"/></g><g><path d="M3352.61 487.5 3352.61 1566.5M3647.62 487.5 3647.62 1566.5M3942.63 487.5 3942.63 1566.5M4238.5 487.5 4238.5 1566.5" stroke="#D9D9D9" stroke-width="3.4375" stroke-linecap="butt" stroke-linejoin="round" stroke-miterlimit="10" stroke-opacity="1" fill="none" fill-rule="nonzero"/></g><g><path d="M0 0 0.000360892 1079" stroke="#BFBFBF" stroke-width="3.4375" stroke-linecap="butt" stroke-linejoin="round" stroke-miterlimit="10" stroke-opacity="1" fill="none" fill-rule="evenodd" transform="matrix(1 0 0 -1 3057.5 1566.5)"/></g><g><path d="M3057.5 1566.5 4238.5 1566.5" stroke="#BFBFBF" stroke-width="3.4375" stroke-linecap="butt" stroke-linejoin="round" stroke-miterlimit="10" stroke-opacity="1" fill="none" fill-rule="evenodd"/></g><g><path d="M3224 1348C3224 1345.79 3226.01 1344 3228.5 1344 3230.99 1344 3233 1345.79 3233 1348 3233 1350.21 3230.99 1352 3228.5 1352 3226.01 1352 3224 1350.21 3224 1348Z" fill="#FF0000" fill-rule="evenodd" fill-opacity="1"/></g><g clip-path="url(#clip2)"><path d="M3886 1493.5C3886 1405.96 3957.19 1335 4045 1335 4132.81 1335 4204 1405.96 4204 1493.5 4204 1581.04 4132.81 1652 4045 1652 3957.19 1652 3886 1581.04 3886 1493.5Z" fill="#F4B183" fill-rule="evenodd" fill-opacity="1"/></g><g><path d="M3861 1391C3861 1365.04 3882.04 1344 3908 1344 3933.96 1344 3955 1365.04 3955 1391 3955 1416.96 3933.96 1438 3908 1438 3882.04 1438 3861 1416.96 3861 1391Z" fill="#A5A5A5" fill-rule="evenodd" fill-opacity="0.74902"/></g><g><path d="M3955 1345.5C3955 1303.25 3989.25 1269 4031.5 1269 4073.75 1269 4108 1303.25 4108 1345.5 4108 1387.75 4073.75 1422 4031.5 1422 3989.25 1422 3955 1387.75 3955 1345.5Z" fill="#FFC000" fill-rule="evenodd" fill-opacity="0.74902"/></g><g><path d="M4047 1307.5C4047 1300.04 4053.04 1294 4060.5 1294 4067.96 1294 4074 1300.04 4074 1307.5 4074 1314.96 4067.96 1321 4060.5 1321 4053.04 1321 4047 1314.96 4047 1307.5Z" fill="#5B9BD5" fill-rule="evenodd" fill-opacity="0.74902"/></g><g clip-path="url(#clip3)"><path d="M4163 1288.5C4163 1265.58 4181.58 1247 4204.5 1247 4227.42 1247 4246 1265.58 4246 1288.5 4246 1311.42 4227.42 1330 4204.5 1330 4181.58 1330 4163 1311.42 4163 1288.5Z" fill="#70AD47" fill-rule="evenodd" fill-opacity="0.74902"/></g><g><path d="M3208 1029.5C3208 1024.25 3212.48 1020 3218 1020 3223.52 1020 3228 1024.25 3228 1029.5 3228 1034.75 3223.52 1039 3218 1039 3212.48 1039 3208 1034.75 3208 1029.5Z" fill="#264478" fill-rule="evenodd" fill-opacity="0.74902"/></g><g><path d="M3746 1029.5C3746 954.666 3806.67 894 3881.5 894 3956.33 894 4017 954.666 4017 1029.5 4017 1104.33 3956.33 1165 3881.5 1165 3806.67 1165 3746 1104.33 3746 1029.5Z" fill="#BDD7EE" fill-rule="evenodd" fill-opacity="1"/></g><g><path d="M3694 576C3694 536.788 3725.79 505 3765 505 3804.21 505 3836 536.788 3836 576 3836 615.212 3804.21 647 3765 647 3725.79 647 3694 615.212 3694 576Z" fill="#DDD29D" fill-rule="evenodd" fill-opacity="1"/></g><g><text fill="#404040" fill-opacity="1" font-family="Times New Roman,Times New Roman_MSFontService,sans-serif" font-style="normal" font-variant="normal" font-weight="700" font-stretch="normal" font-size="50" text-anchor="start" direction="ltr" writing-mode="lr-tb" unicode-bidi="normal" text-decoration="none" transform="matrix(1 0 0 1 3093.86 1379)">Ours</text></g><g><text fill="#404040" fill-opacity="1" font-family="Times New Roman,Times New Roman_MSFontService,sans-serif" font-style="normal" font-variant="normal" font-weight="400" font-stretch="normal" font-size="50" text-anchor="start" direction="ltr" writing-mode="lr-tb" unicode-bidi="normal" text-decoration="none" transform="matrix(1 0 0 1 3947.14 1518)">DynIBaR</text></g><g><path d="M3907.5 1391.5 3808.63 1433.5 3787.5 1433.5" stroke="#A6A6A6" stroke-width="3.4375" stroke-linecap="butt" stroke-linejoin="round" stroke-miterlimit="10" stroke-opacity="1" fill="none" fill-rule="nonzero"/></g><g><text fill="#404040" fill-opacity="1" font-family="Times New Roman,Times New Roman_MSFontService,sans-serif" font-style="normal" font-variant="normal" font-weight="400" font-stretch="normal" font-size="50" text-anchor="start" direction="ltr" writing-mode="lr-tb" unicode-bidi="normal" text-decoration="none" transform="matrix(1 0 0 1 3566.62 1451)">RoDynRF</text></g><g><path d="M4031.5 1345.5 3915.63 1311.5 3895.5 1311.5" stroke="#A6A6A6" stroke-width="3.4375" stroke-linecap="butt" stroke-linejoin="round" stroke-miterlimit="10" stroke-opacity="1" fill="none" fill-rule="nonzero"/></g><g><text fill="#404040" fill-opacity="1" font-family="Times New Roman,Times New Roman_MSFontService,sans-serif" font-style="normal" font-variant="normal" font-weight="400" font-stretch="normal" font-size="50" text-anchor="start" direction="ltr" writing-mode="lr-tb" unicode-bidi="normal" text-decoration="none" transform="matrix(1 0 0 1 3673.99 1328)">DynNeRF</text></g><g><path d="M4060.5 1307.5 4020.63 1232.5 3999.5 1232.5" stroke="#A6A6A6" stroke-width="3.4375" stroke-linecap="butt" stroke-linejoin="round" stroke-miterlimit="10" stroke-opacity="1" fill="none" fill-rule="nonzero"/></g><g><text fill="#404040" fill-opacity="1" font-family="Times New Roman,Times New Roman_MSFontService,sans-serif" font-style="normal" font-variant="normal" font-weight="400" font-stretch="normal" font-size="50" text-anchor="start" direction="ltr" writing-mode="lr-tb" unicode-bidi="normal" text-decoration="none" transform="matrix(1 0 0 1 3798.1 1250)">FlowIBR</text></g><g><path d="M4204.5 1288.5 4120.5 1225.5" stroke="#A6A6A6" stroke-width="3.4375" stroke-linecap="butt" stroke-linejoin="round" stroke-miterlimit="10" stroke-opacity="1" fill="none" fill-rule="nonzero"/></g><g><text fill="#404040" fill-opacity="1" font-family="Times New Roman,Times New Roman_MSFontService,sans-serif" font-style="normal" font-variant="normal" font-weight="400" font-stretch="normal" font-size="50" text-anchor="start" direction="ltr" writing-mode="lr-tb" unicode-bidi="normal" text-decoration="none" transform="matrix(1 0 0 1 4000.22 1169)">MonoNeRF</text></g><g><g><text fill="#404040" fill-opacity="1" font-family="Times New Roman,Times New Roman_MSFontService,sans-serif" font-style="normal" font-variant="normal" font-weight="400" font-stretch="normal" font-size="50" text-anchor="start" direction="ltr" writing-mode="lr-tb" unicode-bidi="normal" text-decoration="none" transform="matrix(1 0 0 1 3091.28 991)">4D</text></g></g><g><g><text fill="#404040" fill-opacity="1" font-family="Times New Roman,Times New Roman_MSFontService,sans-serif" font-style="normal" font-variant="normal" font-weight="400" font-stretch="normal" font-size="50" text-anchor="start" direction="ltr" writing-mode="lr-tb" unicode-bidi="normal" text-decoration="none" transform="matrix(1 0 0 1 3152.9 991)">-</text></g></g><g><g><text fill="#404040" fill-opacity="1" font-family="Times New Roman,Times New Roman_MSFontService,sans-serif" font-style="normal" font-variant="normal" font-weight="400" font-stretch="normal" font-size="50" text-anchor="start" direction="ltr" writing-mode="lr-tb" unicode-bidi="normal" text-decoration="none" transform="matrix(1 0 0 1 3169.7 991)">GS</text></g></g><g><text fill="#404040" fill-opacity="1" font-family="Times New Roman,Times New Roman_MSFontService,sans-serif" font-style="normal" font-variant="normal" font-weight="400" font-stretch="normal" font-size="50" text-anchor="start" direction="ltr" writing-mode="lr-tb" unicode-bidi="normal" text-decoration="none" transform="matrix(1 0 0 1 3948.42 1028)">NSFF</text></g><g><text fill="#404040" fill-opacity="1" font-family="Times New Roman,Times New Roman_MSFontService,sans-serif" font-style="normal" font-variant="normal" font-weight="400" font-stretch="normal" font-size="50" text-anchor="start" direction="ltr" writing-mode="lr-tb" unicode-bidi="normal" text-decoration="none" transform="matrix(1 0 0 1 3785.68 605)">HyperNeRF</text></g><g><text fill="#595959" fill-opacity="1" font-family="Times New Roman,Times New Roman_MSFontService,sans-serif" font-style="normal" font-variant="normal" font-weight="400" font-stretch="normal" font-size="50" text-anchor="start" direction="ltr" writing-mode="lr-tb" unicode-bidi="normal" text-decoration="none" transform="matrix(1 0 0 1 2989.5 1581)">0</text></g><g><text fill="#595959" fill-opacity="1" font-family="Times New Roman,Times New Roman_MSFontService,sans-serif" font-style="normal" font-variant="normal" font-weight="400" font-stretch="normal" font-size="50" text-anchor="start" direction="ltr" writing-mode="lr-tb" unicode-bidi="normal" text-decoration="none" transform="matrix(1 0 0 1 2951.68 1311)">0.1</text></g><g><text fill="#595959" fill-opacity="1" font-family="Times New Roman,Times New Roman_MSFontService,sans-serif" font-style="normal" font-variant="normal" font-weight="400" font-stretch="normal" font-size="50" text-anchor="start" direction="ltr" writing-mode="lr-tb" unicode-bidi="normal" text-decoration="none" transform="matrix(1 0 0 1 2951.68 1041)">0.2</text></g><g><text fill="#595959" fill-opacity="1" font-family="Times New Roman,Times New Roman_MSFontService,sans-serif" font-style="normal" font-variant="normal" font-weight="400" font-stretch="normal" font-size="50" text-anchor="start" direction="ltr" writing-mode="lr-tb" unicode-bidi="normal" text-decoration="none" transform="matrix(1 0 0 1 2951.68 771)">0.3</text></g><g><text fill="#595959" fill-opacity="1" font-family="Times New Roman,Times New Roman_MSFontService,sans-serif" font-style="normal" font-variant="normal" font-weight="400" font-stretch="normal" font-size="50" text-anchor="start" direction="ltr" writing-mode="lr-tb" unicode-bidi="normal" text-decoration="none" transform="matrix(1 0 0 1 2951.68 502)">0.4</text></g><g><text fill="#595959" fill-opacity="1" font-family="Times New Roman,Times New Roman_MSFontService,sans-serif" font-style="normal" font-variant="normal" font-weight="400" font-stretch="normal" font-size="50" text-anchor="start" direction="ltr" writing-mode="lr-tb" unicode-bidi="normal" text-decoration="none" transform="matrix(1 0 0 1 3013.47 1641)">0.01</text></g><g><text fill="#595959" fill-opacity="1" font-family="Times New Roman,Times New Roman_MSFontService,sans-serif" font-style="normal" font-variant="normal" font-weight="400" font-stretch="normal" font-size="50" text-anchor="start" direction="ltr" writing-mode="lr-tb" unicode-bidi="normal" text-decoration="none" transform="matrix(1 0 0 1 3321.21 1641)">0.1</text></g><g><text fill="#595959" fill-opacity="1" font-family="Times New Roman,Times New Roman_MSFontService,sans-serif" font-style="normal" font-variant="normal" font-weight="400" font-stretch="normal" font-size="50" text-anchor="start" direction="ltr" writing-mode="lr-tb" unicode-bidi="normal" text-decoration="none" transform="matrix(1 0 0 1 3635.26 1641)">1</text></g><g><text fill="#595959" fill-opacity="1" font-family="Times New Roman,Times New Roman_MSFontService,sans-serif" font-style="normal" font-variant="normal" font-weight="400" font-stretch="normal" font-size="50" text-anchor="start" direction="ltr" writing-mode="lr-tb" unicode-bidi="normal" text-decoration="none" transform="matrix(1 0 0 1 3917.79 1641)">10</text></g><g><text fill="#595959" fill-opacity="1" font-family="Times New Roman,Times New Roman_MSFontService,sans-serif" font-style="normal" font-variant="normal" font-weight="400" font-stretch="normal" font-size="50" text-anchor="start" direction="ltr" writing-mode="lr-tb" unicode-bidi="normal" text-decoration="none" transform="matrix(1 0 0 1 4200.32 1641)">100</text></g><text fill="#000000" fill-opacity="1" font-family="Times New Roman,Times New Roman_MSFontService,sans-serif" font-style="normal" font-variant="normal" font-weight="700" font-stretch="normal" font-size="55" text-anchor="start" direction="ltr" writing-mode="lr-tb" unicode-bidi="normal" text-decoration="none" transform="matrix(1 0 0 1 3108.04 1831)">Rendering quality vs. training/rendering time</text><path d="M0 0 0.000360892 1067.52" stroke="#4472C4" stroke-width="4.58333" stroke-linecap="butt" stroke-linejoin="miter" stroke-miterlimit="8" stroke-dasharray="4.58333 4.58333" stroke-opacity="1" fill="none" fill-rule="evenodd" transform="matrix(1 0 0 -1 3251.5 1560.02)"/><text fill="#4472C4" fill-opacity="1" font-family="Times New Roman,Times New Roman_MSFontService,sans-serif" font-style="normal" font-variant="normal" font-weight="400" font-stretch="normal" font-size="50" text-anchor="start" direction="ltr" writing-mode="lr-tb" unicode-bidi="normal" text-decoration="none" transform="matrix(1 0 0 1 3197.57 1557)">25 fps</text><text fill="#000000" fill-opacity="1" font-family="Times New Roman,Times New Roman_MSFontService,sans-serif" font-style="normal" font-variant="normal" font-weight="400" font-stretch="normal" font-size="50" text-anchor="start" direction="ltr" writing-mode="lr-tb" unicode-bidi="normal" text-decoration="none" transform="matrix(-1.83697e-16 -1 1 -1.83697e-16 2921.43 1180)">LPIPS</text><text fill="#000000" fill-opacity="1" font-family="Times New Roman,Times New Roman_MSFontService,sans-serif" font-style="normal" font-variant="normal" font-weight="400" font-stretch="normal" font-size="48" text-anchor="start" direction="ltr" writing-mode="lr-tb" unicode-bidi="normal" text-decoration="none" transform="matrix(-1.83697e-16 -1 1 -1.83697e-16 2921.43 1035)">(lower the better)</text><path d="M1.14588 22.9167 1.14619 161.145-1.14547 161.145-1.14578 22.9167ZM-13.7499 27.5 0 0 13.7501 27.5Z" fill="#000000" fill-rule="nonzero" fill-opacity="1" transform="matrix(1 0 0 -1 2902 1395.14)"/><text fill="#000000" fill-opacity="1" font-family="Times New Roman,Times New Roman_MSFontService,sans-serif" font-style="normal" font-variant="normal" font-weight="400" font-stretch="normal" font-size="50" text-anchor="start" direction="ltr" writing-mode="lr-tb" unicode-bidi="normal" text-decoration="none" transform="matrix(1 0 0 1 3469.31 1730)">Rendering time (sec/</text><text fill="#000000" fill-opacity="1" font-family="Times New Roman,Times New Roman_MSFontService,sans-serif" font-style="normal" font-variant="normal" font-weight="400" font-stretch="normal" font-size="50" text-anchor="start" direction="ltr" writing-mode="lr-tb" unicode-bidi="normal" text-decoration="none" transform="matrix(1 0 0 1 3887.54 1730)">img</text><text fill="#000000" fill-opacity="1" font-family="Times New Roman,Times New Roman_MSFontService,sans-serif" font-style="normal" font-variant="normal" font-weight="400" font-stretch="normal" font-size="50" text-anchor="start" direction="ltr" writing-mode="lr-tb" unicode-bidi="normal" text-decoration="none" transform="matrix(1 0 0 1 3965.45 1730)">)</text><path d="M3305.92 1713.85 3430.71 1713.85 3430.71 1716.15 3305.92 1716.15ZM3310.5 1728.75 3283 1715 3310.5 1701.25Z" fill="#000000" fill-rule="nonzero" fill-opacity="1"/><path d="M3817.68 934.637 3876.43 1012.87 3874.6 1014.25 3815.85 936.013ZM3808.52 947.247 3803 917 3830.51 930.733ZM3883.76 1001.64 3889.28 1031.89 3861.77 1018.15Z" fill="#A70103" fill-rule="nonzero" fill-opacity="1"/><text fill="#A70103" fill-opacity="1" font-family="Times New Roman,Times New Roman_MSFontService,sans-serif" font-style="normal" font-variant="normal" font-weight="700" font-stretch="normal" font-size="55" text-anchor="start" direction="ltr" writing-mode="lr-tb" unicode-bidi="normal" text-decoration="none" transform="matrix(1 0 0 1 3632.7 865)">Training </text><text fill="#A70103" fill-opacity="1" font-family="Times New Roman,Times New Roman_MSFontService,sans-serif" font-style="normal" font-variant="normal" font-weight="700" font-stretch="normal" font-size="55" text-anchor="start" direction="ltr" writing-mode="lr-tb" unicode-bidi="normal" text-decoration="none" transform="matrix(1 0 0 1 3682.5 931)">time</text></g></g></svg>