<svg width="871" height="330" xmlns="http://www.w3.org/2000/svg" xmlns:xlink="http://www.w3.org/1999/xlink" xml:space="preserve" overflow="hidden"><g transform="translate(-1764 -1072)"><g><path d="M1801 1237.5C1801 1164.32 1878.9 1105 1975 1105 2071.1 1105 2149 1164.32 2149 1237.5 2149 1310.68 2071.1 1370 1975 1370 1878.9 1370 1801 1310.68 1801 1237.5Z" fill="#FF0000" fill-rule="evenodd" fill-opacity="0.74902"/><path d="M2251 1237.5C2251 1164.32 2328.9 1105 2425 1105 2521.1 1105 2599 1164.32 2599 1237.5 2599 1310.68 2521.1 1370 2425 1370 2328.9 1370 2251 1310.68 2251 1237.5Z" fill="#00FFFF" fill-rule="evenodd" fill-opacity="0.74902"/><path d="M2629.07 1111.65C2607.32 1103.73 2512.41 1074 2437.27 1074 2374.99 1074 2232.63 1105.71 2200 1112.65 2167.38 1105.71 2025.01 1074 1962.73 1074 1888.58 1074 1793.67 1103.73 1770.93 1111.65 1767.97 1112.65 1765 1115.62 1765 1119.58L1765 1160.21C1765 1167.15 1766.98 1175.07 1772.91 1179.04L1784.77 1188.95C1785.76 1228.58 1790.7 1288.04 1808.5 1316.77 1831.24 1356.41 1901.43 1401 1972.61 1401 2098.17 1401 2157.49 1305.87 2179.24 1218.67 2181.22 1209.75 2190.11 1202.82 2200 1202.82 2209.89 1202.82 2217.8 1209.75 2220.76 1218.67 2243.5 1305.87 2302.82 1401 2427.39 1401 2498.57 1401 2568.76 1356.41 2591.5 1316.77 2608.31 1287.05 2613.25 1228.58 2615.23 1188.95L2627.09 1180.03C2633.02 1176.06 2635 1167.15 2635 1161.2L2635 1120.57C2634.01 1115.62 2632.03 1112.65 2629.07 1111.65ZM2119.92 1210.75C2103.11 1270.2 2078.4 1351.45 1972.61 1351.45 1927.14 1351.45 1877.7 1329.66 1856.94 1297.95 1843.1 1276.15 1844.09 1223.63 1844.09 1178.05 1844.09 1164.17 1852.99 1152.28 1866.83 1148.32 1896.49 1140.39 1932.08 1133.45 1962.73 1133.45 1986.45 1133.45 2033.91 1140.39 2080.38 1149.31 2109.05 1154.26 2127.83 1183 2119.92 1210.75ZM2543.06 1297.95C2522.3 1329.66 2472.86 1351.45 2427.39 1351.45 2322.59 1351.45 2296.89 1270.2 2280.08 1210.75 2272.17 1183 2290.95 1154.26 2318.64 1149.31 2365.1 1140.39 2412.56 1133.45 2436.28 1133.45 2467.92 1133.45 2502.52 1140.39 2532.18 1148.32 2546.02 1152.28 2554.92 1164.17 2554.92 1178.05 2555.91 1223.63 2556.9 1276.15 2543.06 1297.95Z" fill="#000000" fill-rule="evenodd" fill-opacity="1"/></g></g></svg>